g book
v 0.05224025 -0.02957162 -0.06072212
v 0.1020424 -0.02168651 0.03270393
v 0.1239556 -0.03917785 -0.03867248
v 0.03241766 -0.01551339 0.01389137
v 0.09316822 -0.0181253 0.07049446
v 0.0308678 -0.002650614 0.0914833
v 0.05680234 -0.01319127 0.1009115
v 0.079129 -0.0262242 0.1067826
v -0.006460929 0.0014365 0.08075844
v 0.02271241 -0.01894734 -0.0718425
v 0.02415818 -0.02012917 -0.08765755
v 0.05289057 -0.03505158 -0.07188347
v -0.03786134 -0.01372748 -0.103412
v -0.03250932 -0.01407645 -0.1039902
v -0.04124359 -0.01359649 -0.09179763
v -0.0883287 -0.004813242 -0.0980677
v -0.07897385 -0.006754579 -0.1047043
v -0.1074705 0.003663034 -0.03159752
v -0.02751763 -0.006837244 0.03313232
v -0.05615431 0.008101625 0.06651359
v -0.09048913 0.006869154 0.0111734
v -0.1281806 0.01462654 0.03910049
v -0.1000049 0.003656673 0.05640312
v -0.1234127 0.01515134 0.04710899
v -0.08852526 -0.003696909 0.01908699
v -0.1026999 0.005805606 0.06552658
v -0.09644093 0.007604208 0.07179306
v -0.06090948 0.01133279 0.07879547
v -0.05526 0.01248403 0.081968
v -0.03020392 0.01080203 0.08980881
v -0.009706086 -0.0001011372 0.08726776
v -0.01958974 0.003149252 0.09320022
v -0.01544247 -0.004316377 0.09188186
v 0.1214167 -0.02205173 0.0719191
v 0.1060601 -0.004796801 0.1395187
v 0.1284128 -0.01761187 0.06172279
v 0.1037749 -0.0104205 0.1329309
v -0.1561644 0.0338598 0.05147919
v 0.1169304 -0.0191793 0.07595627
v 0.1095597 -0.01735301 0.07740158
v 0.1059613 -0.01721743 0.07612045
v -0.1615169 0.0406753 0.0562661
v 0.1025385 -0.01713468 0.07133385
v -0.1340917 0.02493978 -0.04179924
v 0.09501516 -0.01917653 0.03796471
v 0.09967215 -0.01919354 0.04674087
v 0.1063373 -0.01988643 0.05300628
v -0.1303388 0.01923233 -0.03979103
v -0.1044203 0.003717623 -0.1308882
v 0.09471563 -0.01991025 0.03053452
v -0.1059657 0.008315401 -0.1395188
v 0.09883977 -0.02140447 0.02448517
v 0.1615168 -0.03710172 -0.05593361
v 0.1225355 -0.02878344 0.0008561707
v 0.107314 -0.02364505 0.01980797
v 0.1161612 -0.02560901 0.0183831
v 0.1279057 -0.03000056 -0.001220627
v 0.1557131 -0.04067574 -0.0501207
v 0.1316258 -0.03020713 -0.0003688049
v 0.1370303 -0.03088805 0.005115738
v 0.1385534 -0.03203433 0.01152214
v 0.1396856 -0.02417861 0.02199257
v -0.1615169 0.0406753 0.0562661
v 0.1284128 -0.01761187 0.06172279
v 0.1060601 -0.004796801 0.1395187
v -0.1340917 0.02493978 -0.04179924
v 0.1341964 -0.02105166 0.04192528
v 0.1396856 -0.02417861 0.02199257
v -0.1059657 0.008315401 -0.1395188
v 0.1615168 -0.03710172 -0.05593361
v 0.1021402 -0.02095508 0.03268463
v 0.05233798 -0.02884019 -0.06074142
v 0.1240532 -0.03844638 -0.03869179
v 0.03251532 -0.01478196 0.01387207
v 0.09326603 -0.01739386 0.07047524
v 0.03096538 -0.00191926 0.09146408
v 0.05690007 -0.01245988 0.1008922
v 0.07922666 -0.02549281 0.1067633
v -0.006363273 0.002167931 0.08073913
v 0.02281007 -0.01821595 -0.07186172
v 0.02425584 -0.01939774 -0.08767685
v 0.05298823 -0.03432015 -0.07190269
v -0.03776376 -0.01299609 -0.1034314
v -0.03241174 -0.01334506 -0.1040095
v -0.04114585 -0.01286506 -0.09181701
v -0.08823097 -0.004081812 -0.09808701
v -0.07887627 -0.006023149 -0.1047235
v -0.1073729 0.004394502 -0.03161682
v -0.02741989 -0.006105852 0.0331131
v -0.05605666 0.008833017 0.06649429
v -0.0903914 0.007600546 0.0111541
v -0.128083 0.01535793 0.03908127
v -0.09990726 0.004388065 0.05638382
v -0.1233151 0.01588277 0.04708977
v -0.0884276 -0.002965479 0.01906769
v -0.1026022 0.006536999 0.06550735
v -0.09634319 0.008335638 0.07177376
v -0.06081183 0.01206422 0.07877624
v -0.05516218 0.01321542 0.0819487
v -0.03010634 0.01153346 0.08978943
v -0.009608431 0.0006302929 0.08724853
v -0.01949201 0.00388072 0.09318084
v -0.01534466 -0.003584947 0.09186256
v 0.1311664 -0.03636905 0.04359726
v 0.1182869 -0.0243558 0.04784782
v 0.1335341 -0.03198626 0.04354469
v 0.1293274 -0.02807582 0.04170471
v 0.1279087 -0.02429911 0.04880562
v 0.1298907 -0.02555503 0.04144798
v 0.1341964 -0.02105166 0.04192528
v 0.1284128 -0.01761187 0.06172279
v 0.1240113 -0.02270087 0.05954285
v 0.1214167 -0.02205173 0.0719191
v 0.1152607 -0.0287041 0.04667228
v 0.1141115 -0.02144885 0.05327461
v 0.1209322 -0.02501716 0.06138023
v 0.1170513 -0.02145282 0.05853309
v 0.1139411 -0.0239107 0.06158607
v 0.1134436 -0.01965701 0.06724029
v 0.1084135 -0.02440337 0.05192108
v 0.116427 -0.02216922 0.07386146
v 0.1169304 -0.0191793 0.07595627
v 0.1090194 -0.02078059 0.07471405
v 0.1095597 -0.01735301 0.07740158
v 0.1059613 -0.01721743 0.07612045
v 0.1053124 -0.02156161 0.07001892
v 0.1025385 -0.01713468 0.07133385
v 0.1063373 -0.01988643 0.05300628
v 0.1115828 -0.01985385 0.06332611
v 0.1010871 -0.02260772 0.04494591
v 0.09967215 -0.01919354 0.04674087
v 0.09729093 -0.02333493 0.03841683
v 0.09501516 -0.01917653 0.03796471
v 0.1085498 -0.02905547 0.0359713
v 0.09664214 -0.02509496 0.03193809
v 0.09471563 -0.01991025 0.03053452
v 0.09883977 -0.02140447 0.02448517
v 0.1006644 -0.02530002 0.02652763
v 0.107314 -0.02364505 0.01980797
v 0.1197965 -0.03134635 0.03068611
v 0.1073147 -0.02623549 0.02299713
v 0.1161612 -0.02560901 0.0183831
v 0.1233533 -0.02730708 0.02999206
v 0.1335341 -0.03198626 0.04354469
v 0.1293274 -0.02807582 0.04170471
v 0.1169972 -0.02940364 0.02166832
v 0.1228106 -0.02651629 0.02261543
v 0.132072 -0.02672435 0.03413246
v 0.1298907 -0.02555503 0.04144798
v 0.1341964 -0.02105166 0.04192528
v 0.1396856 -0.02417861 0.02199257
v 0.1343763 -0.02873877 0.02301208
v 0.1385534 -0.03203433 0.01152214
v 0.1267139 -0.03135123 0.01656914
v 0.1280163 -0.02784026 0.01988762
v 0.1324898 -0.03174979 0.02064629
v 0.1295452 -0.02903659 0.01049149
v 0.1259331 -0.02821334 0.01274925
v 0.1238579 -0.03236483 0.004656982
v 0.1225355 -0.02878344 0.0008561707
v 0.1279057 -0.03000056 -0.001220627
v 0.1294972 -0.03270945 0.002541656
v 0.1316258 -0.03020713 -0.0003688049
v 0.1370303 -0.03088805 0.005115738
v 0.1352739 -0.03314803 0.007437057
vt 0.6444324 0.4130424
vt 0.5922744 0.4264089
vt 0.6118417 0.3927965
vt 0.6230193 0.4467915
vt 0.5808717 0.4424351
vt 0.5938014 0.4741863
vt 0.580868 0.4666526
vt 0.5696825 0.459212
vt 0.6102815 0.4849664
vt 0.659023 0.4215181
vt 0.6645929 0.4156047
vt 0.648028 0.407835
vt 0.691514 0.4340953
vt 0.6899453 0.431868
vt 0.6881724 0.4392613
vt 0.7065437 0.4554505
vt 0.7058831 0.4496343
vt 0.6879146 0.4854779
vt 0.635743 0.4765022
vt 0.6320366 0.4999008
vt 0.6662216 0.4937812
vt 0.6682795 0.5178971
vt 0.651221 0.5124648
vt 0.6637996 0.5189309
vt 0.6605986 0.4953173
vt 0.6486884 0.5167482
vt 0.644097 0.5166714
vt 0.6289312 0.5060457
vt 0.6257485 0.5051125
vt 0.6144135 0.4980748
vt 0.608779 0.4877819
vt 0.6092512 0.4938357
vt 0.6063174 0.4909562
vt 0.06311003 0.525982
vt 0.09313867 0.5289378
vt 0.05876888 0.529065
vt 0.09005012 0.5269514
vt 0.09608622 0.4118286
vt 0.06548654 0.5246052
vt 0.06703569 0.5217499
vt 0.06681068 0.5200779
vt 0.09952478 0.4096462
vt 0.06508741 0.5179698
vt 0.05633415 0.4062479
vt 0.0523795 0.5104406
vt 0.05540628 0.5137233
vt 0.05711065 0.5173244
vt 0.05612139 0.4092303
vt 0.01619225 0.4061309
vt 0.04899739 0.509158
vt 0.01309802 0.4034823
vt 0.04546719 0.5099458
vt 0.002496678 0.5224735
vt 0.03182021 0.5155951
vt 0.04200564 0.5127642
vt 0.03980674 0.5160865
vt 0.0298143 0.5174371
vt 0.005835336 0.5209452
vt 0.02935507 0.5190595
vt 0.03048296 0.5221056
vt 0.03264127 0.5238069
vt 0.03650089 0.5274726
vt 0.0479175 0.695142
vt 0.06070155 0.7564089
vt 0.04341204 0.7550427
vt 0.06966029 0.6966954
vt 0.0651187 0.7567816
vt 0.06954069 0.7570769
vt 0.09138811 0.6984279
vt 0.08684061 0.7583249
vt 0.5922744 0.4264089
vt 0.6444324 0.4130424
vt 0.6118417 0.3927965
vt 0.6230193 0.4467915
vt 0.5808717 0.4424351
vt 0.5938014 0.4741863
vt 0.580868 0.4666526
vt 0.5696825 0.459212
vt 0.6102815 0.4849664
vt 0.659023 0.4215181
vt 0.6645929 0.4156047
vt 0.648028 0.407835
vt 0.691514 0.4340953
vt 0.6899453 0.431868
vt 0.6881724 0.4392613
vt 0.7065437 0.4554505
vt 0.7058831 0.4496343
vt 0.6879146 0.4854779
vt 0.635743 0.4765022
vt 0.6320366 0.4999008
vt 0.6662216 0.4937812
vt 0.6682795 0.5178971
vt 0.651221 0.5124648
vt 0.6637996 0.5189309
vt 0.6605986 0.4953173
vt 0.6486884 0.5167482
vt 0.644097 0.5166714
vt 0.6289312 0.5060457
vt 0.6257485 0.5051125
vt 0.6144135 0.4980748
vt 0.608779 0.4877819
vt 0.6092512 0.4938357
vt 0.6063174 0.4909562
vt 0.7078602 0.5335286
vt 0.7221899 0.5354002
vt 0.7072858 0.5361722
vt 0.7109866 0.5377765
vt 0.7158865 0.5413483
vt 0.7105442 0.5378807
vt 0.7071608 0.5418088
vt 0.7213733 0.552408
vt 0.7239644 0.5467598
vt 0.7322433 0.5542316
vt 0.722959 0.5305553
vt 0.7277684 0.5371245
vt 0.7271813 0.5463856
vt 0.7280335 0.5419515
vt 0.7319418 0.5425749
vt 0.7360358 0.5466793
vt 0.7314637 0.5325573
vt 0.7364268 0.5530384
vt 0.7377399 0.5556857
vt 0.7422379 0.5505885
vt 0.7441838 0.553763
vt 0.7462971 0.550983
vt 0.7430006 0.5457844
vt 0.7468511 0.5453737
vt 0.7360988 0.5327708
vt 0.7358368 0.5429378
vt 0.7351835 0.524029
vt 0.7388623 0.5250001
vt 0.7351565 0.5173452
vt 0.7392213 0.515764
vt 0.7240382 0.519465
vt 0.7324945 0.5121093
vt 0.7361367 0.5089412
vt 0.7298096 0.5049374
vt 0.7276818 0.5087451
vt 0.7206157 0.5040114
vt 0.7129089 0.5189924
vt 0.7210684 0.5077898
vt 0.7125368 0.5056692
vt 0.708007 0.5190799
vt 0.7051666 0.5337309
vt 0.7040964 0.5298416
vt 0.7121072 0.5102912
vt 0.7070738 0.5133169
vt 0.701245 0.5244979
vt 0.7039378 0.5302697
vt 0.6995797 0.5330769
vt 0.6910509 0.5175328
vt 0.6970041 0.5157498
vt 0.6907487 0.5065179
vt 0.702253 0.508428
vt 0.7023316 0.5123856
vt 0.6978225 0.5126155
vt 0.6987541 0.5038055
vt 0.7024334 0.5045202
vt 0.7006058 0.4970325
vt 0.701545 0.4932779
vt 0.6959121 0.4930475
vt 0.6957421 0.4971215
vt 0.692868 0.494755
vt 0.6900705 0.5008693
vt 0.6925111 0.5025377
vn -0.3498673 -0.9216537 0.1677717
vn -0.1314399 -0.9843475 0.1174042
vn -0.1847695 -0.9661506 0.1800367
vn -0.1492662 -0.9814574 0.1202548
vn -0.2211948 -0.9751275 -0.01411636
vn -0.1990299 -0.9764455 0.08331509
vn -0.3356304 -0.9070656 -0.2541343
vn -0.4037503 -0.8472089 -0.3452864
vn -0.228333 -0.9678227 0.1057507
vn -0.224087 -0.9731171 0.05317981
vn -0.2424646 -0.9665918 0.08313215
vn -0.5723875 -0.7487558 0.3342714
vn -0.08364668 -0.9962978 -0.01984677
vn -0.07590937 -0.991663 -0.1041265
vn -0.1443388 -0.9875536 0.06248356
vn -0.1777052 -0.9813586 0.07318565
vn -0.1864681 -0.9821566 0.02445771
vn -0.1672534 -0.9811432 0.09687159
vn -0.1202244 -0.9835448 0.1348546
vn -0.05966999 -0.9458447 0.3190883
vn -0.2926458 -0.9518644 -0.09117354
vn -0.3132805 -0.9475392 0.06344227
vn -0.1593214 -0.977127 0.1408527
vn -0.5227146 -0.7719327 0.3617864
vn -0.400831 -0.820201 -0.4081725
vn 0.04278137 -0.9700557 0.2390851
vn 0.04349129 -0.9696708 0.240514
vn 0.04583048 -0.9615674 0.2707171
vn -0.08470043 -0.9573126 0.2763662
vn -0.2786542 -0.9391307 0.2009615
vn -0.5164245 -0.6652015 -0.5392704
vn -0.5259001 -0.6890531 -0.4986331
vn -0.5458444 -0.1579137 -0.8228713
vn 0.3653361 -0.8914126 0.2681662
vn 0.4345148 0.2437386 0.8670573
vn 0.9292717 0.3287971 0.1683643
vn 0.1365886 -0.8815278 0.4519428
vn -0.5506293 -0.8061587 0.2166
vn -0.2421831 -0.87823 0.4123827
vn -0.1605667 -0.8910882 0.4244764
vn -0.3202327 -0.8812074 0.3477419
vn -0.7766112 0.4108834 0.4775455
vn -0.453328 -0.8741081 0.1744385
vn -0.7938611 0.5222204 -0.3115612
vn -0.5545391 -0.8076832 0.2003348
vn -0.4486778 -0.8345996 0.3195806
vn -0.5259953 -0.7802624 0.3384073
vn -0.545342 -0.8380567 -0.01621677
vn -0.4279001 -0.8776525 -0.2159339
vn -0.560106 -0.8281275 -0.0220466
vn -0.3843342 0.182369 -0.9050022
vn -0.4397025 -0.8745785 -0.2043869
vn 0.8361376 0.009779423 -0.5484326
vn -0.3720918 -0.9214295 -0.1118728
vn -0.2904206 -0.926788 -0.2381598
vn -0.3422655 -0.8872892 -0.3091477
vn -0.170174 -0.968621 -0.181147
vn 0.2736048 -0.9613438 -0.03096007
vn 0.004749049 -0.9873955 -0.1582012
vn -0.07010294 -0.9784718 -0.1941092
vn 0.3741294 -0.8965381 0.2371641
vn 0.9082916 0.3410178 0.242308
vn -0.7766112 0.4108834 0.4775455
vn 0.9292717 0.3287971 0.1683643
vn 0.4345148 0.2437386 0.8670573
vn -0.7938611 0.5222204 -0.3115612
vn 0.9251194 0.3161585 0.2102329
vn 0.9082916 0.3410178 0.242308
vn -0.3843342 0.182369 -0.9050022
vn 0.8361376 0.009779423 -0.5484326
vn 0.1314396 0.9843475 -0.1174041
vn 0.3498666 0.9216538 -0.1677727
vn 0.1847692 0.9661506 -0.1800367
vn 0.149266 0.9814574 -0.1202546
vn 0.2211938 0.9751277 0.01411724
vn 0.1990296 0.9764456 -0.08331451
vn 0.3356289 0.907066 0.2541351
vn 0.4037502 0.8472077 0.3452895
vn 0.2283328 0.9678227 -0.105751
vn 0.224086 0.9731173 -0.05317908
vn 0.2424631 0.9665924 -0.08313055
vn 0.5723891 0.7487525 -0.3342758
vn 0.08364766 0.9962978 0.0198442
vn 0.07590806 0.9916629 0.1041283
vn 0.1443392 0.9875535 -0.06248466
vn 0.1777054 0.9813585 -0.07318678
vn 0.1864686 0.9821563 -0.02446159
vn 0.1672535 0.9811434 -0.09687115
vn 0.1202241 0.9835449 -0.1348545
vn 0.05966987 0.9458444 -0.3190893
vn 0.2926457 0.9518643 0.0911746
vn 0.3132812 0.9475389 -0.06344348
vn 0.159322 0.9771271 -0.1408515
vn 0.522715 0.7719306 -0.3617902
vn 0.4008329 0.8202 0.4081727
vn -0.04278177 0.9700552 -0.2390867
vn -0.04349135 0.969669 -0.2405211
vn -0.04582816 0.9615674 -0.2707175
vn 0.08470105 0.9573124 -0.276367
vn 0.2786522 0.9391304 -0.2009658
vn 0.516422 0.6652052 0.5392684
vn 0.5258967 0.6890623 0.4986239
vn 0.5458404 0.1579246 0.8228719
vn 0.4758148 -0.8360437 0.2731871
vn 0.1478428 -0.7113383 0.6871247
vn 0.9629554 0.05069359 0.264853
vn 0.9506514 0.2007683 0.2365461
vn 0.4060203 -0.8446648 0.3488397
vn 0.8402489 -0.4436271 0.3117319
vn 0.9251194 0.3161585 0.2102329
vn 0.9292717 0.3287971 0.1683643
vn 0.423853 -0.9006962 0.09536751
vn 0.3653361 -0.8914126 0.2681662
vn -0.1376773 -0.7886612 0.5992148
vn 0.2046388 -0.9500617 0.2355962
vn 0.1495526 -0.972846 -0.1766486
vn 0.03542525 -0.9488372 -0.3137722
vn -0.2859366 -0.939266 0.1897886
vn -0.1591183 -0.9836935 0.08383519
vn -0.3823059 -0.8024361 0.4581903
vn 0.01438432 -0.9397712 0.3415015
vn -0.2421831 -0.87823 0.4123827
vn -0.1840879 -0.8631554 0.4701856
vn -0.1605667 -0.8910882 0.4244764
vn -0.3202327 -0.8812074 0.3477419
vn -0.4269812 -0.8974903 0.110445
vn -0.453328 -0.8741081 0.1744385
vn -0.5259953 -0.7802624 0.3384073
vn -0.3251214 -0.9280959 0.1814773
vn -0.5685703 -0.6965525 0.4376554
vn -0.4486778 -0.8345996 0.3195806
vn -0.6713393 -0.6637928 0.3296703
vn -0.5545391 -0.8076832 0.2003348
vn -0.3333443 -0.9408348 0.06092251
vn -0.6882253 -0.7215031 -0.07602108
vn -0.560106 -0.8281275 -0.0220466
vn -0.4397025 -0.8745785 -0.2043869
vn -0.4610938 -0.786266 -0.4113129
vn -0.2904206 -0.926788 -0.2381598
vn 0.1224991 -0.9402235 -0.3177639
vn -0.3207231 -0.8409286 -0.4358622
vn -0.3422655 -0.8872892 -0.3091477
vn 0.4180983 -0.8687727 -0.2653822
vn 0.9629554 0.05069359 0.264853
vn 0.9506514 0.2007683 0.2365461
vn -0.1599791 -0.9319463 -0.3253964
vn 0.2151404 -0.9561804 0.1985788
vn 0.4541873 -0.8727213 0.1790848
vn 0.8402489 -0.4436271 0.3117319
vn 0.9251194 0.3161585 0.2102329
vn 0.9082916 0.3410178 0.242308
vn 0.3348411 -0.8488486 0.409069
vn 0.3741294 -0.8965381 0.2371641
vn -0.2266826 -0.9737824 -0.01904807
vn -0.2107877 -0.8054142 0.5539643
vn -0.04503529 -0.8594931 0.5091595
vn -0.1763306 -0.9736665 0.1445029
vn -0.2634797 -0.9640023 -0.03575044
vn -0.3843365 -0.9223321 -0.03986003
vn -0.3720918 -0.9214295 -0.1118728
vn -0.170174 -0.968621 -0.181147
vn 0.010433 -0.9764715 -0.2153939
vn 0.004749049 -0.9873955 -0.1582012
vn -0.07010294 -0.9784718 -0.1941092
vn 0.1076539 -0.9941065 0.01276142
g book_0
f 3/3/3 2/2/2 1/1/1
f 4/4/4 1/1/1 2/2/2
f 2/2/2 5/5/5 4/4/4
f 6/6/6 4/4/4 5/5/5
f 6/6/6 5/5/5 7/7/7
f 8/8/8 7/7/7 5/5/5
f 4/4/4 6/6/6 9/9/9
f 10/10/10 1/1/1 4/4/4
f 1/1/1 10/10/10 11/11/11
f 12/12/12 1/1/1 11/11/11
f 10/10/10 13/13/13 11/11/11
f 14/14/14 11/11/11 13/13/13
f 10/10/10 15/15/15 13/13/13
f 15/15/15 10/10/10 4/4/4
f 4/4/4 16/16/16 15/15/15
f 17/17/17 15/15/15 16/16/16
f 4/4/4 18/18/18 16/16/16
f 4/4/4 19/19/19 18/18/18
f 9/9/9 19/19/19 4/4/4
f 9/9/9 20/20/20 19/19/19
f 21/21/21 18/18/18 19/19/19
f 21/21/21 22/22/22 18/18/18
f 21/21/21 23/23/23 22/22/22
f 20/20/20 23/23/23 19/19/19
f 24/24/24 22/22/22 23/23/23
f 21/21/21 19/19/19 25/25/25
f 19/19/19 23/23/23 25/25/25
f 23/23/23 21/21/21 25/25/25
f 23/23/23 20/20/20 26/26/26
f 26/26/26 20/20/20 27/27/27
f 28/28/28 27/27/27 20/20/20
f 28/28/28 20/20/20 29/29/29
f 30/30/30 29/29/29 20/20/20
f 20/20/20 9/9/9 30/30/30
f 31/31/31 30/30/30 9/9/9
f 30/30/30 31/31/31 32/32/32
f 33/33/33 32/32/32 31/31/31
f 36/36/36 35/35/35 34/34/34
f 37/37/37 34/34/34 35/35/35
f 37/37/37 35/35/35 38/38/38
f 39/39/39 34/34/34 37/37/37
f 37/37/37 40/40/40 39/39/39
f 40/40/40 37/37/37 41/41/41
f 38/38/38 41/41/41 37/37/37
f 42/42/42 38/38/38 35/35/35
f 43/43/43 41/41/41 38/38/38
f 42/42/42 44/44/44 38/38/38
f 38/38/38 45/45/45 43/43/43
f 46/46/46 43/43/43 45/45/45
f 46/46/46 47/47/47 43/43/43
f 38/38/38 48/48/48 45/45/45
f 48/48/48 38/38/38 44/44/44
f 48/48/48 44/44/44 49/49/49
f 50/50/50 45/45/45 48/48/48
f 51/51/51 49/49/49 44/44/44
f 50/50/50 48/48/48 52/52/52
f 49/49/49 52/52/52 48/48/48
f 51/51/51 53/53/53 49/49/49
f 49/49/49 54/54/54 52/52/52
f 55/55/55 52/52/52 54/54/54
f 56/56/56 55/55/55 54/54/54
f 57/57/57 54/54/54 49/49/49
f 49/49/49 58/58/58 57/57/57
f 58/58/58 49/49/49 53/53/53
f 59/59/59 57/57/57 58/58/58
f 59/59/59 58/58/58 60/60/60
f 61/61/61 60/60/60 58/58/58
f 58/58/58 53/53/53 61/61/61
f 62/62/62 61/61/61 53/53/53
f 65/65/65 64/64/64 63/63/63
f 66/66/66 63/63/63 64/64/64
f 66/66/66 64/64/64 67/67/67
f 68/68/68 66/66/66 67/67/67
f 66/66/66 68/68/68 69/69/69
f 70/70/70 69/69/69 68/68/68
f 73/73/73 72/72/72 71/71/71
f 74/74/74 71/71/71 72/72/72
f 71/71/71 74/74/74 75/75/75
f 76/76/76 75/75/75 74/74/74
f 76/76/76 77/77/77 75/75/75
f 78/78/78 75/75/75 77/77/77
f 76/76/76 74/74/74 79/79/79
f 72/72/72 80/80/80 74/74/74
f 80/80/80 72/72/72 81/81/81
f 72/72/72 82/82/82 81/81/81
f 80/80/80 81/81/81 83/83/83
f 84/84/84 83/83/83 81/81/81
f 85/85/85 80/80/80 83/83/83
f 80/80/80 85/85/85 74/74/74
f 74/74/74 85/85/85 86/86/86
f 87/87/87 86/86/86 85/85/85
f 88/88/88 74/74/74 86/86/86
f 74/74/74 88/88/88 89/89/89
f 89/89/89 79/79/79 74/74/74
f 90/90/90 79/79/79 89/89/89
f 91/91/91 89/89/89 88/88/88
f 92/92/92 91/91/91 88/88/88
f 91/91/91 92/92/92 93/93/93
f 93/93/93 90/90/90 89/89/89
f 94/94/94 93/93/93 92/92/92
f 89/89/89 91/91/91 95/95/95
f 93/93/93 89/89/89 95/95/95
f 91/91/91 93/93/93 95/95/95
f 90/90/90 93/93/93 96/96/96
f 96/96/96 97/97/97 90/90/90
f 98/98/98 90/90/90 97/97/97
f 98/98/98 99/99/99 90/90/90
f 100/100/100 90/90/90 99/99/99
f 90/90/90 100/100/100 79/79/79
f 101/101/101 79/79/79 100/100/100
f 100/100/100 102/102/102 101/101/101
f 103/103/103 101/101/101 102/102/102
f 106/106/106 105/105/105 104/104/104
f 105/105/105 106/106/106 107/107/107
f 105/105/105 107/107/107 108/108/108
f 109/109/109 108/108/108 107/107/107
f 109/109/109 110/110/110 108/108/108
f 111/111/111 108/108/108 110/110/110
f 112/112/112 108/108/108 111/111/111
f 108/108/108 112/112/112 105/105/105
f 113/113/113 112/112/112 111/111/111
f 114/114/114 104/104/104 105/105/105
f 115/115/115 105/105/105 112/112/112
f 105/105/105 115/115/115 114/114/114
f 113/113/113 116/116/116 112/112/112
f 115/115/115 112/112/112 117/117/117
f 112/112/112 116/116/116 117/117/117
f 117/117/117 118/118/118 115/115/115
f 118/118/118 117/117/117 116/116/116
f 116/116/116 113/113/113 119/119/119
f 116/116/116 119/119/119 118/118/118
f 120/120/120 114/114/114 115/115/115
f 120/120/120 115/115/115 118/118/118
f 121/121/121 119/119/119 113/113/113
f 122/122/122 121/121/121 113/113/113
f 121/121/121 122/122/122 123/123/123
f 121/121/121 123/123/123 119/119/119
f 124/124/124 123/123/123 122/122/122
f 123/123/123 124/124/124 125/125/125
f 123/123/123 125/125/125 126/126/126
f 126/126/126 119/119/119 123/123/123
f 127/127/127 126/126/126 125/125/125
f 128/128/128 126/126/126 127/127/127
f 120/120/120 118/118/118 128/128/128
f 129/129/129 118/118/118 119/119/119
f 129/129/129 119/119/119 126/126/126
f 129/129/129 128/128/128 118/118/118
f 128/128/128 129/129/129 126/126/126
f 120/120/120 128/128/128 130/130/130
f 120/120/120 130/130/130 114/114/114
f 131/131/131 130/130/130 128/128/128
f 130/130/130 131/131/131 132/132/132
f 132/132/132 114/114/114 130/130/130
f 133/133/133 132/132/132 131/131/131
f 114/114/114 132/132/132 134/134/134
f 134/134/134 104/104/104 114/114/114
f 132/132/132 133/133/133 135/135/135
f 135/135/135 134/134/134 132/132/132
f 136/136/136 135/135/135 133/133/133
f 136/136/136 137/137/137 135/135/135
f 138/138/138 135/135/135 137/137/137
f 135/135/135 138/138/138 134/134/134
f 137/137/137 139/139/139 138/138/138
f 104/104/104 134/134/134 140/140/140
f 140/140/140 134/134/134 138/138/138
f 141/141/141 138/138/138 139/139/139
f 138/138/138 141/141/141 140/140/140
f 139/139/139 142/142/142 141/141/141
f 140/140/140 143/143/143 104/104/104
f 144/144/144 104/104/104 143/143/143
f 144/144/144 143/143/143 145/145/145
f 146/146/146 140/140/140 141/141/141
f 146/146/146 141/141/141 142/142/142
f 146/146/146 147/147/147 140/140/140
f 143/143/143 140/140/140 147/147/147
f 143/143/143 148/148/148 145/145/145
f 149/149/149 145/145/145 148/148/148
f 149/149/149 148/148/148 150/150/150
f 151/151/151 150/150/150 148/148/148
f 148/148/148 143/143/143 152/152/152
f 148/148/148 152/152/152 151/151/151
f 147/147/147 152/152/152 143/143/143
f 152/152/152 153/153/153 151/151/151
f 146/146/146 154/154/154 147/147/147
f 146/146/146 142/142/142 154/154/154
f 152/152/152 147/147/147 155/155/155
f 155/155/155 147/147/147 154/154/154
f 152/152/152 155/155/155 156/156/156
f 156/156/156 153/153/153 152/152/152
f 154/154/154 156/156/156 155/155/155
f 156/156/156 157/157/157 153/153/153
f 156/156/156 154/154/154 157/157/157
f 158/158/158 154/154/154 142/142/142
f 158/158/158 157/157/157 154/154/154
f 158/158/158 142/142/142 159/159/159
f 157/157/157 158/158/158 159/159/159
f 159/159/159 142/142/142 160/160/160
f 160/160/160 161/161/161 159/159/159
f 162/162/162 159/159/159 161/161/161
f 159/159/159 162/162/162 157/157/157
f 163/163/163 162/162/162 161/161/161
f 163/163/163 164/164/164 162/162/162
f 165/165/165 153/153/153 157/157/157
f 165/165/165 157/157/157 162/162/162
f 165/165/165 162/162/162 164/164/164
f 165/165/165 164/164/164 153/153/153
